<svg width="26" height="27" viewBox="0 0 26 27" fill="none" xmlns="http://www.w3.org/2000/svg">
<g clip-path="url(#clip0_1_3371)">
<path d="M12.1731 22.473C12.6816 22.1661 13.3182 22.1661 13.8267 22.473L19.0565 25.6295C20.2683 26.3609 21.7631 25.2745 21.4415 23.8962L20.0535 17.9476C19.9185 17.3692 20.1151 16.7636 20.564 16.3747L25.1867 12.3701C26.2565 11.4433 25.6847 9.68606 24.2743 9.56645L18.1914 9.05055C17.6001 9.0004 17.0851 8.62707 16.8535 8.08067L14.473 2.46447C13.9217 1.16366 12.0781 1.16366 11.5268 2.46447L9.14633 8.08067C8.91473 8.62707 8.39974 9.0004 7.8084 9.05055L1.72548 9.56645C0.315167 9.68606 -0.256717 11.4433 0.813074 12.3701L5.43583 16.3747C5.88477 16.7636 6.08132 17.3692 5.94636 17.9476L4.55836 23.8962C4.23675 25.2745 5.73155 26.3609 6.94329 25.6295L12.1731 22.473Z" fill="#F3A218"/>
</g>
<defs>
<clipPath id="clip0_1_3371">
<rect width="26" height="26" fill="white" transform="translate(0 0.289062)"/>
</clipPath>
</defs>
</svg>
